<svg id="calories_icon" xmlns="http://www.w3.org/2000/svg" xmlns:xlink="http://www.w3.org/1999/xlink" width="11.444" height="14.663" viewBox="0 0 11.444 14.663">
  <defs>
    <filter id="Rectangle_76" x="-9" y="-6" width="29.444" height="32.663" filterUnits="userSpaceOnUse">
      <feOffset dy="3" input="SourceAlpha"/>
      <feGaussianBlur stdDeviation="3" result="blur"/>
      <feFlood flood-color="#571b1b" flood-opacity="0.161"/>
      <feComposite operator="in" in2="blur"/>
      <feComposite in="SourceGraphic"/>
    </filter>
    <clipPath id="clip-path">
      <g transform="matrix(1, 0, 0, 1, 0, 0)" filter="url(#Rectangle_76)">
        <rect id="Rectangle_76-2" data-name="Rectangle 76" width="11.444" height="14.663" fill="aqua"/>
      </g>
    </clipPath>
    <filter id="Path_87" x="-6.921" y="-4.425" width="25.775" height="28.665" filterUnits="userSpaceOnUse">
      <feOffset dy="3" input="SourceAlpha"/>
      <feGaussianBlur stdDeviation="3" result="blur-2"/>
      <feFlood flood-opacity="0.161"/>
      <feComposite operator="in" in2="blur-2"/>
      <feComposite in="SourceGraphic"/>
    </filter>
    <filter id="Path_87-2" x="-6.921" y="-4.425" width="25.775" height="28.665" filterUnits="userSpaceOnUse">
      <feOffset dy="4" input="SourceAlpha"/>
      <feGaussianBlur stdDeviation="4" result="blur-3"/>
      <feFlood flood-opacity="0.161" result="color"/>
      <feComposite operator="out" in="SourceGraphic" in2="blur-3"/>
      <feComposite operator="in" in="color"/>
      <feComposite operator="in" in2="SourceGraphic"/>
    </filter>
  </defs>
  <g id="Group_162" data-name="Group 162" clip-path="url(#clip-path)">
    <g data-type="innerShadowGroup">
      <g transform="matrix(1, 0, 0, 1, 0, 0)" filter="url(#Path_87)">
        <path id="Path_87-3" data-name="Path 87" d="M5.713,3.1C3.32,1.53,4.4,0,4.4,0,2.078,1.326,1.563,3.351,2.132,5.911A2.73,2.73,0,0,1,1.2,3.39,4.486,4.486,0,0,0,.013,7.012a3.842,3.842,0,0,0,2,3.176A3.914,3.914,0,0,0,5.8,10.167a3.841,3.841,0,0,0,1.969-3.2A4.121,4.121,0,0,0,5.713,3.1ZM4.147,9.773a2.7,2.7,0,0,1-1.5-.448q.158.015.317.016A3.485,3.485,0,0,0,5.4,8.331,3.42,3.42,0,0,0,6.415,5.911,3.139,3.139,0,0,0,6.4,5.6h0a2.643,2.643,0,0,1,.458,1.478,2.683,2.683,0,0,1-.794,1.907,2.733,2.733,0,0,1-1.923.792Z" transform="translate(2.08 1.58)" fill="aqua"/>
      </g>
      <g transform="matrix(1, 0, 0, 1, 0, 0)" filter="url(#Path_87-2)">
        <path id="Path_87-4" data-name="Path 87" d="M5.713,3.1C3.32,1.53,4.4,0,4.4,0,2.078,1.326,1.563,3.351,2.132,5.911A2.73,2.73,0,0,1,1.2,3.39,4.486,4.486,0,0,0,.013,7.012a3.842,3.842,0,0,0,2,3.176A3.914,3.914,0,0,0,5.8,10.167a3.841,3.841,0,0,0,1.969-3.2A4.121,4.121,0,0,0,5.713,3.1ZM4.147,9.773a2.7,2.7,0,0,1-1.5-.448q.158.015.317.016A3.485,3.485,0,0,0,5.4,8.331,3.42,3.42,0,0,0,6.415,5.911,3.139,3.139,0,0,0,6.4,5.6h0a2.643,2.643,0,0,1,.458,1.478,2.683,2.683,0,0,1-.794,1.907,2.733,2.733,0,0,1-1.923.792Z" transform="translate(2.08 1.58)" fill="#fff"/>
      </g>
    </g>
  </g>
</svg>
