<svg id="steps_icon" xmlns="http://www.w3.org/2000/svg" xmlns:xlink="http://www.w3.org/1999/xlink" width="12.277" height="14.227" viewBox="0 0 12.277 14.227">
  <defs>
    <clipPath id="clip-path">
      <rect id="Rectangle_75" data-name="Rectangle 75" width="12.277" height="14.227" fill="#ff9100"/>
    </clipPath>
  </defs>
  <g id="Group_160" data-name="Group 160" clip-path="url(#clip-path)">
    <path id="Path_86" data-name="Path 86" d="M.708,7.279q-.121-.3-.224-.607Q.427,6.5.374,6.328C.34,6.213.308,6.1.277,5.98Q.2,5.669.132,5.353C.1,5.2.075,5.05.053,4.9.037,4.783.024,4.668.014,4.554S0,4.307,0,4.182H0a3.544,3.544,0,0,1,.036-.506q.022-.146.057-.287a2.971,2.971,0,0,1,.178-.516A2.612,2.612,0,0,1,.4,2.621,2.36,2.36,0,0,1,.56,2.392a2.034,2.034,0,0,1,.229-.253,1.783,1.783,0,0,1,.2-.168,1.583,1.583,0,0,1,.188-.111,1.325,1.325,0,0,1,.229-.089,1.186,1.186,0,0,1,.125-.028,1.21,1.21,0,0,1,.152-.016A1.334,1.334,0,0,1,2,1.753a1.358,1.358,0,0,1,.305.1,1.286,1.286,0,0,1,.131.071l.1.065a1.4,1.4,0,0,1,.164.144,1.74,1.74,0,0,1,.138.158,2.111,2.111,0,0,1,.144.2A2.542,2.542,0,0,1,3.1,2.73q.058.124.1.255h0a3.423,3.423,0,0,1,.135.52q.026.139.04.279c.014.131.022.265.024.4h0a5.727,5.727,0,0,1-.024.607,1.5,1.5,0,0,1-.016.164c-.014.119-.03.241-.044.36s-.036.285-.05.427c-.01.109-.018.216-.022.326s0,.222,0,.334h0A4.379,4.379,0,0,0,3.3,6.9c.016.1.034.2.055.289L.979,7.893q-.144-.3-.271-.615ZM7.2,5.555q.121-.3.224-.607.057-.17.109-.344t.1-.348q.081-.312.146-.627c.03-.152.057-.3.079-.457.016-.113.028-.229.038-.342s.014-.247.014-.372h0a3.5,3.5,0,0,0-.036-.5,2.322,2.322,0,0,0-.057-.287,2.936,2.936,0,0,0-.178-.516A2.66,2.66,0,0,0,7.51.9,2.4,2.4,0,0,0,7.354.669,2.061,2.061,0,0,0,7.115.414a1.744,1.744,0,0,0-.2-.168A1.516,1.516,0,0,0,6.725.135,1.321,1.321,0,0,0,6.5.046,1.22,1.22,0,0,0,6.371.018,1.159,1.159,0,0,0,6.219,0,1.347,1.347,0,0,0,5.9.028a1.368,1.368,0,0,0-.305.1A1.258,1.258,0,0,0,5.465.2c-.032.02-.065.042-.1.065h0a1.453,1.453,0,0,0-.164.144,1.76,1.76,0,0,0-.138.158,2.135,2.135,0,0,0-.144.2A2.518,2.518,0,0,0,4.8,1q-.058.124-.1.255h0a3.428,3.428,0,0,0-.133.526q-.026.139-.04.279c-.014.131-.022.265-.024.4h0a5.691,5.691,0,0,0,.024.607,1.5,1.5,0,0,0,.016.164c.014.119.03.241.044.36s.036.285.051.429c.01.107.018.216.022.326s0,.222,0,.334h0a4.483,4.483,0,0,1-.053.491c-.016.1-.034.2-.055.287l2.383.7q.146-.3.271-.615ZM1.191,8.808a2.987,2.987,0,0,0,.627,1.084,1.138,1.138,0,0,0,1.09.447,1.127,1.127,0,0,0,.647-1A2.988,2.988,0,0,0,3.44,8.081c-.018-.065-.051-.091-.117-.071L1.25,8.682c-.071.02-.081.061-.059.125ZM6.668,6.959,4.591,6.287c-.063-.02-.1,0-.115.065a2.657,2.657,0,0,0-.091,1.214,1.112,1.112,0,0,0,.657.938,1.091,1.091,0,0,0,1.064-.39,2.653,2.653,0,0,0,.619-1.029c.022-.069.006-.105-.057-.125Z" transform="translate(2.437 1.624)" fill="#ff9100"/>
  </g>
</svg>
