<svg id="Hour_needle" xmlns="http://www.w3.org/2000/svg" xmlns:xlink="http://www.w3.org/1999/xlink" width="58.864" height="58.864" viewBox="0 0 58.864 58.864">
  <defs>
    <clipPath id="clip-path">
      <rect id="Rectangle_190" data-name="Rectangle 190" width="27.442" height="55.804" fill="#fefefe"/>
    </clipPath>
  </defs>
  <g id="Group_449" data-name="Group 449" transform="translate(39.459) rotate(45)">
    <g id="Group_431" data-name="Group 431" clip-path="url(#clip-path)">
      <path id="Path_162" data-name="Path 162" d="M27.442,13.722a13.727,13.727,0,0,1-9.584,13.086,2.337,2.337,0,0,0-.288.087,2.439,2.439,0,0,0-1.485,1.861V53.441a2.364,2.364,0,1,1-4.727,0V28.756a2.445,2.445,0,0,0-1.487-1.862,2.656,2.656,0,0,0-.285-.086h0A13.723,13.723,0,1,1,27.442,13.722" transform="translate(0 0)" fill="#fefefe"/>
    </g>
  </g>
</svg>
