<svg id="Schedule_icon" xmlns="http://www.w3.org/2000/svg" xmlns:xlink="http://www.w3.org/1999/xlink" width="14.871" height="15.818" viewBox="0 0 14.871 15.818">
  <defs>
    <clipPath id="clip-path">
      <rect id="Rectangle_201" data-name="Rectangle 201" width="14.871" height="15.818" transform="translate(-2 -2)" fill="none"/>
    </clipPath>
  </defs>
  <g id="Group_454" data-name="Group 454" transform="translate(2 2)" clip-path="url(#clip-path)">
    <path id="Path_170" data-name="Path 170" d="M7.28,14.294H8.964a.584.584,0,0,1,.584.584v8.928a.584.584,0,0,1-.584.584H.584A.584.584,0,0,1,0,23.806V14.878a.584.584,0,0,1,.584-.584h6.7Z" transform="translate(0 -13.714)" fill="#fff"/>
    <path id="Path_171" data-name="Path 171" d="M7.28,14.294H8.964a.584.584,0,0,1,.584.584v2.049H0V14.878a.584.584,0,0,1,.584-.584h6.7Z" transform="translate(0 -13.714)" fill="#ff4242"/>
    <line id="Line_1" data-name="Line 1" x1="9.548" transform="translate(0 3.376)" fill="none" stroke="#e33b3b" stroke-width="0.6"/>
    <line id="Line_2" data-name="Line 2" x1="3.651" transform="translate(2.948 2.062)" fill="none" stroke="#ff8585" stroke-linecap="round" stroke-width="0.6"/>
    <line id="Line_3" data-name="Line 3" y1="0.911" transform="translate(7.517 0.247)" fill="none" stroke="#525252" stroke-linecap="round" stroke-width="0.7"/>
    <line id="Line_4" data-name="Line 4" y1="0.911" transform="translate(2.03 0.247)" fill="none" stroke="#525252" stroke-linecap="round" stroke-width="0.7"/>
    <path id="Path_172" data-name="Path 172" d="M78.022,106.806H77a.086.086,0,0,1-.086-.086V105.7a.086.086,0,0,1,.086-.086h1.021a.086.086,0,0,1,.086.086v1.021a.086.086,0,0,1-.086.086" transform="translate(-73.792 -101.325)" fill="#e3e1d2"/>
    <path id="Path_173" data-name="Path 173" d="M130.069,106.806h-1.021a.086.086,0,0,1-.086-.086V105.7a.086.086,0,0,1,.086-.086h1.021a.086.086,0,0,1,.086.086v1.021a.086.086,0,0,1-.086.086" transform="translate(-123.726 -101.325)" fill="#e3e1d2"/>
    <path id="Path_174" data-name="Path 174" d="M182.116,106.806H181.1a.086.086,0,0,1-.086-.086V105.7a.086.086,0,0,1,.086-.086h1.021a.086.086,0,0,1,.086.086v1.021a.086.086,0,0,1-.086.086" transform="translate(-173.659 -101.325)" fill="#e3e1d2"/>
    <path id="Path_175" data-name="Path 175" d="M25.974,159.76H24.954a.086.086,0,0,1-.086-.086v-1.021a.086.086,0,0,1,.086-.086h1.021a.086.086,0,0,1,.086.086v1.021a.086.086,0,0,1-.086.086" transform="translate(-23.858 -152.129)" fill="#ff5959"/>
    <path id="Path_176" data-name="Path 176" d="M78.022,159.76H77a.086.086,0,0,1-.086-.086v-1.021a.086.086,0,0,1,.086-.086h1.021a.086.086,0,0,1,.086.086v1.021a.086.086,0,0,1-.086.086" transform="translate(-73.792 -152.129)" fill="#e3e1d2"/>
    <path id="Path_177" data-name="Path 177" d="M130.069,159.76h-1.021a.086.086,0,0,1-.086-.086v-1.021a.086.086,0,0,1,.086-.086h1.021a.086.086,0,0,1,.086.086v1.021a.086.086,0,0,1-.086.086" transform="translate(-123.726 -152.129)" fill="#e3e1d2"/>
    <path id="Path_178" data-name="Path 178" d="M182.116,159.76H181.1a.086.086,0,0,1-.086-.086v-1.021a.086.086,0,0,1,.086-.086h1.021a.086.086,0,0,1,.086.086v1.021a.086.086,0,0,1-.086.086" transform="translate(-173.659 -152.129)" fill="#e3e1d2"/>
    <path id="Path_179" data-name="Path 179" d="M25.974,212.713H24.954a.086.086,0,0,1-.086-.086v-1.021a.086.086,0,0,1,.086-.086h1.021a.086.086,0,0,1,.086.086v1.021a.086.086,0,0,1-.086.086" transform="translate(-23.858 -202.931)" fill="#e3e1d2"/>
    <path id="Path_180" data-name="Path 180" d="M78.022,212.713H77a.086.086,0,0,1-.086-.086v-1.021a.086.086,0,0,1,.086-.086h1.021a.086.086,0,0,1,.086.086v1.021a.086.086,0,0,1-.086.086" transform="translate(-73.792 -202.931)" fill="#e3e1d2"/>
    <path id="Path_181" data-name="Path 181" d="M130.069,212.713h-1.021a.086.086,0,0,1-.086-.086v-1.021a.086.086,0,0,1,.086-.086h1.021a.086.086,0,0,1,.086.086v1.021a.086.086,0,0,1-.086.086" transform="translate(-123.726 -202.931)" fill="#e3e1d2"/>
    <path id="Path_182" data-name="Path 182" d="M122.186,148.524a3.016,3.016,0,1,1,3.016-3.016,3.019,3.019,0,0,1-3.016,3.016" transform="translate(-114.331 -136.705)" fill="#8f8f8f"/>
    <path id="Path_183" data-name="Path 183" d="M139.972,160.93a2.363,2.363,0,1,1-2.363-2.363,2.363,2.363,0,0,1,2.363,2.363" transform="translate(-129.754 -152.128)" fill="#f5f5f5"/>
    <path id="Path_184" data-name="Path 184" d="M187.973,176.271a.208.208,0,0,1-.1-.028l-1.251-.722V173.61a.209.209,0,0,1,.419,0v1.67l1.042.6a.209.209,0,0,1-.1.391" transform="translate(-179.038 -166.359)" fill="#ff4242"/>
    <path id="Path_185" data-name="Path 185" d="M187.973,176.271a.208.208,0,0,1-.1-.028l-1.251-.722V173.61a.209.209,0,0,1,.419,0v1.67l1.042.6a.209.209,0,0,1-.1.391Z" transform="translate(-179.038 -166.359)" fill="none"/>
  </g>
</svg>
